# xmcd
#
# Track frame offsets:
#	150
#	18119
#	33838
#	51875
#	69873
#	86200
#	105914
#	123555
#	140340
#	157562
#	189031
#
# Disc length: 2917 seconds
#
# Revision: 1
# Processed by: cddbd v1.4PL0 Copyright (c) Steve Scherf et al.
# Submitted via: EasyCDDAExtractor 5.1.0
#
DISCID=760b630b
DTITLE=Kentucky Headhunters - Soul
DYEAR=2003
DGENRE=Country
TTITLE0=everyday people
TTITLE1=that's alright
TTITLE2=you got it
TTITLE3=lonely nights
TTITLE4=we all need it
TTITLE5=my sunny days
TTITLE6=last night i met carl perkins
TTITLE7=i still wanna be your man
TTITLE8=looking for mr. perfect
TTITLE9=have you ever loved a woman
TTITLE10=what you see is what you get
EXTD=
EXTT0=
EXTT1=
EXTT2=
EXTT3=
EXTT4=
EXTT5=
EXTT6=
EXTT7=
EXTT8=
EXTT9=
EXTT10=
PLAYORDER=
